# xmcd
#
# Track frame offsets:
#	150
#	21470
#	36418
#	51393
#	66206
#	84988
#	97830
#	115883
#	129076
#	146994
#	157892
#
# Disc length: 2280 seconds
#
# Revision: 0
# Processed by: cddbd v1.5.2PL0 Copyright (c) Steve Scherf et al.
# Submitted via: EasyCDDAExtractor 16.0.6.1
#
DISCID=9208e60b
DTITLE=Παπάζογλου Νίκος - Χαράτσι-Ν. Παπάζογλου
DYEAR=1988
DGENRE=Έντεχνη
TTITLE0=Υδροχόος [Β. Αλαγιάννη-Μ. Ρασούλης]
TTITLE1=Με το τραγούδι, με το κρασί [Ν. Παπάζογλου]
TTITLE2=Αύγουστος [Ν. Παπάζογλου]
TTITLE3=Χαράτσι [Ν. Παπάζογλου-Τ. Σιμώτας]
TTITLE4=Λεμόνι στην πορτοκαλιά [Β. Αλαγιάννη-Μ. Ρασούλης]
TTITLE5=Στάλα-στάλα [Ν. Παπάζογλου]
TTITLE6=Ευχή [Ν. Παπάζογλου]
TTITLE7=Καρυάτιδα [Ν. Παπάζογλου]
TTITLE8=Χτες βράδυ [Ν. Παπάζογλου]
TTITLE9=Πέρασα έτσι, δίχως λόγο [Ν. Παπάζογλου]
TTITLE10=Χτυπάει τηλέφωνο [Ν. Παπάζογλου]
EXTD=
EXTT0=
EXTT1=
EXTT2=
EXTT3=
EXTT4=
EXTT5=
EXTT6=
EXTT7=
EXTT8=
EXTT9=
EXTT10=
PLAYORDER=
